<svg xmlns="http://www.w3.org/2000/svg" version="1.1" xmlns:xlink="http://www.w3.org/1999/xlink" xmlns:svgjs="http://svgjs.com/svgjs" width="100%" height="100%"><svg width="100%" height="100%" viewBox="0 0 154 154" version="1.1" xmlns="http://www.w3.org/2000/svg" xmlns:xlink="http://www.w3.org/1999/xlink" xml:space="preserve" xmlns:serif="http://www.serif.com/" style="fill-rule:evenodd;clip-rule:evenodd;stroke-linejoin:round;stroke-miterlimit:2;">
    <g transform="matrix(1,0,0,1,-273,-23)">
        <g transform="matrix(1,0,0,1,250,1.42109e-14)">
            <g id="SvgjsG1000" transform="matrix(1.28333,0,0,1.28333,-28.3333,-28.3331)">
                <path d="M65.901,40.123C65.654,40.126 65.159,40.143 64.8,40.161C64.441,40.179 63.854,40.223 63.496,40.259C63.137,40.295 62.541,40.37 62.171,40.425C61.801,40.481 61.224,40.582 60.889,40.649C60.554,40.717 60.031,40.834 59.727,40.911C59.423,40.988 58.89,41.135 58.543,41.239C58.195,41.342 57.59,41.544 57.197,41.686C56.805,41.829 56.209,42.063 55.872,42.207C55.536,42.351 55.013,42.588 54.711,42.734C54.408,42.879 53.894,43.144 53.569,43.323C53.244,43.502 52.704,43.818 52.37,44.023C52.036,44.229 51.476,44.599 51.125,44.845C50.774,45.092 50.204,45.519 49.857,45.796C49.511,46.072 48.971,46.529 48.657,46.81C48.343,47.091 47.792,47.622 47.432,47.989C47.072,48.357 46.542,48.932 46.254,49.268C45.967,49.605 45.511,50.173 45.242,50.532C44.973,50.891 44.565,51.469 44.336,51.816C44.106,52.164 43.807,52.635 43.671,52.864C43.535,53.092 43.267,53.569 43.075,53.924C42.884,54.278 42.592,54.862 42.425,55.22C42.259,55.579 41.994,56.196 41.836,56.591C41.678,56.987 41.431,57.675 41.285,58.121C41.141,58.568 40.93,59.298 40.816,59.747C40.703,60.194 40.555,60.845 40.488,61.192C40.421,61.54 40.328,62.081 40.282,62.395C40.236,62.709 40.171,63.232 40.137,63.557C40.104,63.882 40.055,64.612 40.028,65.178C39.991,65.97 39.991,66.442 40.027,67.225C40.054,67.784 40.104,68.522 40.139,68.865C40.173,69.208 40.248,69.791 40.305,70.161C40.361,70.531 40.462,71.099 40.529,71.425C40.595,71.75 40.74,72.364 40.849,72.79C40.959,73.216 41.144,73.858 41.26,74.217C41.376,74.576 41.59,75.181 41.737,75.562C41.883,75.944 42.157,76.595 42.345,77.01C42.533,77.425 42.854,78.074 43.057,78.453C43.26,78.832 43.583,79.401 43.775,79.717C43.966,80.033 44.279,80.52 44.471,80.801C44.662,81.081 44.975,81.52 45.166,81.777C45.358,82.034 45.695,82.465 45.916,82.734C46.137,83.003 46.525,83.454 46.78,83.735C47.034,84.016 47.505,84.503 47.827,84.818C48.149,85.132 48.577,85.536 48.779,85.715C48.981,85.894 49.339,86.197 49.574,86.389C49.81,86.582 50.222,86.905 50.491,87.107C50.76,87.309 51.256,87.658 51.592,87.882C51.928,88.106 52.433,88.427 52.713,88.595C52.993,88.763 53.482,89.04 53.799,89.211C54.115,89.381 54.674,89.66 55.04,89.831C55.406,90.002 56.045,90.277 56.461,90.441C56.877,90.606 57.465,90.823 57.768,90.924C58.071,91.026 58.576,91.183 58.891,91.275C59.207,91.365 59.741,91.504 60.079,91.583C60.417,91.662 60.934,91.772 61.229,91.827C61.524,91.883 62.026,91.965 62.345,92.01C62.664,92.055 63.194,92.12 63.522,92.153C63.85,92.187 64.573,92.233 65.129,92.255C65.785,92.281 66.468,92.281 67.08,92.255C67.597,92.233 68.305,92.187 68.652,92.153C69,92.118 69.596,92.044 69.977,91.987C70.359,91.93 70.937,91.829 71.262,91.762C71.586,91.695 72.109,91.576 72.423,91.498C72.737,91.42 73.122,91.319 73.279,91.273C73.436,91.228 73.794,91.117 74.074,91.027C74.355,90.937 74.859,90.761 75.195,90.637C75.532,90.513 76.082,90.292 76.418,90.147C76.755,90.001 77.336,89.729 77.709,89.542C78.083,89.355 78.697,89.025 79.075,88.809C79.452,88.592 80.045,88.227 80.393,87.997C80.741,87.768 81.153,87.486 81.309,87.371C81.465,87.255 81.604,87.175 81.619,87.191C81.633,87.208 81.828,87.506 82.053,87.853C82.277,88.201 82.619,88.738 82.812,89.046C83.005,89.355 83.413,90.032 83.718,90.551L84.272,91.494L83.926,92.171C83.736,92.543 83.478,93.091 83.353,93.389C83.228,93.687 83.034,94.202 82.923,94.533C82.811,94.864 82.646,95.418 82.557,95.764C82.467,96.111 82.348,96.641 82.293,96.944C82.238,97.247 82.165,97.716 82.131,97.985C82.096,98.256 82.046,98.852 82.02,99.312C81.984,99.943 81.983,100.349 82.018,100.97C82.044,101.422 82.101,102.073 82.145,102.418C82.189,102.763 82.282,103.319 82.351,103.653C82.42,103.988 82.54,104.496 82.619,104.781C82.697,105.067 82.844,105.544 82.946,105.841C83.047,106.139 83.222,106.6 83.334,106.867C83.482,107.218 83.53,107.382 83.511,107.458C83.497,107.516 83.286,107.967 83.043,108.461C82.8,108.954 82.46,109.614 82.287,109.928C82.114,110.242 81.747,110.874 81.471,111.334C81.196,111.794 80.946,112.203 80.916,112.242L80.862,112.315L80.414,112.021C80.167,111.859 79.663,111.546 79.292,111.324C78.923,111.104 78.161,110.695 77.601,110.418C77.04,110.14 76.215,109.768 75.766,109.589C75.318,109.411 74.607,109.154 74.187,109.017C73.767,108.879 73.106,108.685 72.719,108.585C72.333,108.484 71.802,108.355 71.541,108.3C71.28,108.243 70.794,108.152 70.461,108.095C70.128,108.04 69.553,107.957 69.183,107.913C68.813,107.869 68.226,107.812 67.878,107.788C67.531,107.763 66.714,107.743 66.064,107.743C65.414,107.744 64.616,107.763 64.291,107.787C63.966,107.81 63.526,107.849 63.312,107.872C63.1,107.895 62.659,107.951 62.334,107.996C62.009,108.042 61.504,108.125 61.213,108.181C60.921,108.237 60.417,108.346 60.092,108.422C59.767,108.498 59.299,108.617 59.052,108.686C58.806,108.755 58.347,108.894 58.033,108.995C57.719,109.097 57.215,109.272 56.912,109.386C56.61,109.499 56.105,109.702 55.791,109.837C55.477,109.971 54.872,110.255 54.446,110.468C54.02,110.68 53.46,110.975 53.202,111.122C52.944,111.269 52.587,111.481 52.407,111.593C52.228,111.704 51.833,111.96 51.531,112.162C51.228,112.364 50.696,112.745 50.347,113.009C49.999,113.272 49.442,113.722 49.108,114.009C48.775,114.295 48.22,114.804 47.875,115.14C47.529,115.476 47.038,115.982 46.782,116.265C46.526,116.548 46.137,117 45.916,117.27C45.695,117.539 45.358,117.969 45.167,118.226C44.975,118.483 44.662,118.922 44.471,119.203C44.279,119.483 43.966,119.971 43.775,120.287C43.584,120.603 43.26,121.172 43.057,121.55C42.854,121.929 42.533,122.579 42.345,122.994C42.157,123.408 41.883,124.06 41.736,124.441C41.591,124.822 41.369,125.45 41.244,125.837C41.12,126.224 40.926,126.902 40.815,127.345C40.703,127.788 40.565,128.389 40.507,128.681C40.45,128.972 40.367,129.44 40.322,129.72C40.278,130 40.215,130.459 40.182,130.739C40.149,131.019 40.099,131.524 40.07,131.86C40.042,132.197 40.018,133.059 40.018,133.776C40.017,134.494 40.041,135.374 40.07,135.733C40.098,136.092 40.157,136.67 40.201,137.017C40.245,137.365 40.336,137.966 40.403,138.354C40.471,138.741 40.591,139.337 40.669,139.679C40.748,140.02 40.894,140.583 40.993,140.931C41.091,141.278 41.274,141.862 41.399,142.228C41.523,142.593 41.733,143.162 41.865,143.491C41.998,143.821 42.219,144.338 42.357,144.641C42.494,144.943 42.75,145.466 42.926,145.802C43.101,146.139 43.378,146.643 43.541,146.923C43.704,147.204 44.03,147.727 44.265,148.085C44.5,148.444 44.877,148.985 45.101,149.288C45.326,149.59 45.668,150.031 45.86,150.266C46.053,150.502 46.424,150.933 46.685,151.224C46.947,151.516 47.442,152.031 47.787,152.37C48.131,152.708 48.587,153.14 48.8,153.329C49.013,153.517 49.38,153.829 49.615,154.021C49.851,154.214 50.273,154.542 50.553,154.75C50.833,154.959 51.374,155.335 51.755,155.587C52.136,155.838 52.671,156.173 52.944,156.331C53.217,156.49 53.703,156.757 54.024,156.926C54.346,157.095 54.872,157.353 55.193,157.501C55.514,157.648 56.12,157.904 56.538,158.069C56.957,158.235 57.62,158.474 58.012,158.601C58.404,158.728 59.074,158.922 59.5,159.032C59.926,159.142 60.596,159.296 60.989,159.374C61.381,159.452 61.959,159.553 62.273,159.599C62.587,159.645 63.11,159.709 63.435,159.742C63.76,159.775 64.439,159.824 64.943,159.85C65.472,159.876 66.205,159.885 66.676,159.869C67.124,159.855 67.817,159.816 68.214,159.785C68.612,159.753 69.163,159.697 69.437,159.662C69.712,159.626 70.202,159.551 70.527,159.496C70.851,159.44 71.324,159.349 71.577,159.295C71.83,159.24 72.225,159.148 72.454,159.09C72.684,159.033 73.151,158.905 73.492,158.805C73.832,158.706 74.429,158.512 74.816,158.374C75.205,158.236 75.834,157.99 76.215,157.827C76.596,157.664 77.108,157.436 77.353,157.321C77.598,157.205 78.057,156.971 78.373,156.8C78.688,156.629 79.176,156.352 79.456,156.185C79.736,156.017 80.213,155.715 80.516,155.513C80.818,155.311 81.314,154.963 81.616,154.739C81.919,154.514 82.313,154.21 82.493,154.063C82.672,153.916 83.029,153.611 83.286,153.386C83.544,153.161 83.991,152.748 84.281,152.468C84.571,152.187 85.062,151.677 85.373,151.333C85.683,150.99 86.153,150.439 86.418,150.11C86.681,149.782 87.055,149.292 87.248,149.023C87.441,148.754 87.754,148.295 87.945,148.004C88.135,147.712 88.441,147.217 88.625,146.903C88.809,146.589 89.139,145.974 89.359,145.537C89.579,145.1 89.856,144.522 89.973,144.253C90.09,143.984 90.283,143.516 90.401,143.213C90.519,142.91 90.729,142.314 90.868,141.888C91.007,141.463 91.202,140.802 91.3,140.421C91.399,140.04 91.526,139.512 91.583,139.248C91.64,138.983 91.741,138.433 91.807,138.025C91.873,137.616 91.955,137.034 91.988,136.732C92.022,136.429 92.069,135.919 92.092,135.597C92.116,135.275 92.135,134.478 92.135,133.824C92.135,133.17 92.116,132.36 92.093,132.023C92.069,131.687 92.023,131.164 91.989,130.862C91.955,130.559 91.882,130.027 91.826,129.679C91.769,129.332 91.677,128.818 91.62,128.538C91.563,128.257 91.454,127.781 91.378,127.478C91.303,127.175 91.157,126.647 91.055,126.304C90.952,125.962 90.77,125.402 90.648,125.061C90.527,124.72 90.306,124.147 90.156,123.789C90.007,123.43 89.739,122.834 89.561,122.465C89.382,122.095 89.125,121.591 88.988,121.344C88.851,121.097 88.647,120.738 88.534,120.548C88.421,120.357 88.182,119.972 88.002,119.692C87.822,119.411 87.542,118.995 87.379,118.766L87.084,118.351L87.805,117.885C88.202,117.629 88.746,117.283 89.015,117.116C89.284,116.949 89.752,116.664 90.055,116.483C90.358,116.303 90.783,116.053 91.001,115.928L91.396,115.7L91.938,115.958C92.237,116.099 92.71,116.307 92.99,116.421C93.27,116.534 93.726,116.703 94.003,116.796C94.28,116.888 94.785,117.035 95.124,117.123C95.464,117.211 95.98,117.328 96.272,117.384C96.563,117.439 97.031,117.513 97.311,117.548C97.592,117.583 98.087,117.63 98.412,117.652C98.737,117.675 99.241,117.693 99.533,117.693C99.824,117.693 100.329,117.675 100.654,117.652C100.979,117.63 101.475,117.582 101.755,117.548C102.035,117.513 102.503,117.439 102.794,117.384C103.086,117.328 103.603,117.211 103.943,117.123C104.283,117.035 104.787,116.887 105.064,116.794C105.34,116.701 105.796,116.534 106.076,116.421C106.356,116.308 106.844,116.093 107.159,115.942L107.732,115.669L108.076,115.852C108.265,115.952 108.713,116.199 109.071,116.4C109.429,116.601 110.006,116.941 110.355,117.155C110.703,117.37 111.254,117.718 111.579,117.929C111.905,118.141 112.229,118.358 112.3,118.412L112.43,118.509L112.124,118.946C111.956,119.187 111.684,119.595 111.521,119.853C111.357,120.112 111.082,120.569 110.909,120.869C110.737,121.169 110.434,121.738 110.237,122.133C110.039,122.528 109.781,123.071 109.664,123.34C109.546,123.609 109.367,124.04 109.266,124.298C109.164,124.556 108.982,125.061 108.86,125.419C108.739,125.778 108.559,126.356 108.46,126.703C108.362,127.051 108.236,127.528 108.181,127.763C108.126,127.999 108.025,128.476 107.957,128.823C107.889,129.171 107.797,129.712 107.751,130.026C107.706,130.34 107.64,130.879 107.606,131.224C107.572,131.569 107.525,132.277 107.502,132.797C107.474,133.434 107.474,134.066 107.501,134.737C107.524,135.285 107.571,136.017 107.605,136.365C107.64,136.712 107.704,137.248 107.749,137.555C107.793,137.862 107.875,138.353 107.93,138.646C107.985,138.939 108.088,139.43 108.159,139.737C108.229,140.045 108.367,140.581 108.467,140.929C108.566,141.278 108.74,141.838 108.854,142.174C108.968,142.511 109.168,143.056 109.3,143.386C109.431,143.716 109.669,144.276 109.828,144.63C109.988,144.983 110.285,145.584 110.488,145.965C110.691,146.347 110.995,146.888 111.163,147.168C111.331,147.448 111.651,147.952 111.874,148.286C112.097,148.621 112.438,149.106 112.631,149.364C112.824,149.623 113.163,150.055 113.384,150.324C113.604,150.594 113.993,151.044 114.248,151.325C114.502,151.606 114.973,152.093 115.295,152.408C115.617,152.723 116.064,153.143 116.288,153.342C116.512,153.54 116.952,153.908 117.266,154.159C117.58,154.41 118.068,154.782 118.35,154.985C118.632,155.188 119.072,155.491 119.328,155.658C119.584,155.825 120.069,156.123 120.405,156.32C120.741,156.518 121.384,156.865 121.832,157.092C122.28,157.319 122.922,157.622 123.259,157.765C123.595,157.908 124.187,158.141 124.575,158.284C124.962,158.427 125.581,158.635 125.95,158.746C126.319,158.857 126.876,159.013 127.189,159.091C127.502,159.17 128.076,159.298 128.464,159.376C128.852,159.453 129.436,159.554 129.761,159.6C130.086,159.647 130.609,159.711 130.923,159.744C131.237,159.777 131.957,159.826 132.523,159.852C133.311,159.889 133.793,159.889 134.582,159.852C135.148,159.825 135.877,159.777 136.202,159.742C136.527,159.708 137.05,159.644 137.364,159.598C137.678,159.553 138.219,159.461 138.566,159.394C138.914,159.327 139.583,159.172 140.054,159.052C140.525,158.931 141.204,158.737 141.563,158.621C141.921,158.505 142.526,158.291 142.906,158.145C143.286,157.999 143.901,157.743 144.272,157.576C144.643,157.41 145.212,157.134 145.537,156.963C145.862,156.793 146.303,156.553 146.515,156.43C146.729,156.307 147.123,156.07 147.392,155.902C147.661,155.734 148.144,155.414 148.465,155.19C148.786,154.967 149.318,154.572 149.647,154.313C149.976,154.053 150.457,153.657 150.715,153.43C150.973,153.204 151.456,152.753 151.789,152.427C152.122,152.102 152.603,151.606 152.857,151.325C153.111,151.044 153.499,150.594 153.719,150.325C153.939,150.056 154.278,149.624 154.472,149.365C154.666,149.106 155.007,148.621 155.23,148.286C155.453,147.951 155.773,147.448 155.942,147.168C156.11,146.888 156.414,146.347 156.617,145.965C156.82,145.584 157.117,144.983 157.276,144.63C157.436,144.276 157.674,143.716 157.805,143.386C157.937,143.056 158.146,142.483 158.269,142.113C158.393,141.743 158.569,141.174 158.66,140.849C158.752,140.524 158.89,139.98 158.968,139.639C159.046,139.299 159.165,138.703 159.233,138.314C159.3,137.926 159.383,137.388 159.417,137.119C159.451,136.85 159.497,136.428 159.52,136.182C159.542,135.935 159.58,135.297 159.602,134.765C159.631,134.113 159.631,133.481 159.603,132.829C159.58,132.296 159.534,131.576 159.499,131.228C159.465,130.881 159.399,130.34 159.354,130.026C159.309,129.712 159.208,129.132 159.13,128.738C159.053,128.343 158.908,127.701 158.808,127.311C158.708,126.921 158.546,126.345 158.447,126.031C158.349,125.717 158.199,125.268 158.115,125.032C158.03,124.796 157.888,124.421 157.799,124.196C157.71,123.972 157.554,123.596 157.452,123.361C157.351,123.125 157.078,122.557 156.847,122.097C156.616,121.637 156.276,121.004 156.093,120.69C155.909,120.377 155.567,119.826 155.331,119.468C155.096,119.109 154.726,118.577 154.508,118.285C154.291,117.994 153.933,117.535 153.712,117.266C153.491,116.997 153.076,116.52 152.79,116.206C152.504,115.892 152.071,115.442 151.829,115.205C151.586,114.968 151.259,114.656 151.102,114.512C150.945,114.368 150.595,114.064 150.325,113.836C150.055,113.609 149.568,113.222 149.243,112.977C148.919,112.731 148.434,112.384 148.166,112.204C147.897,112.025 147.504,111.769 147.29,111.635C147.078,111.501 146.669,111.259 146.382,111.097C146.096,110.935 145.537,110.641 145.139,110.442C144.742,110.244 144.215,109.995 143.968,109.888C143.721,109.781 143.272,109.597 142.969,109.479C142.667,109.361 142.162,109.179 141.848,109.074C141.534,108.969 140.993,108.803 140.645,108.705C140.298,108.608 139.775,108.472 139.484,108.405C139.192,108.337 138.715,108.237 138.424,108.181C138.132,108.125 137.628,108.042 137.303,107.995C136.978,107.949 136.436,107.883 136.1,107.848C135.764,107.814 135.041,107.77 134.494,107.751C133.945,107.732 133.078,107.732 132.559,107.751C132.041,107.771 131.332,107.815 130.985,107.851C130.637,107.886 130.044,107.961 129.668,108.016C129.291,108.072 128.723,108.17 128.404,108.235C128.085,108.299 127.659,108.392 127.458,108.441C127.256,108.49 126.862,108.593 126.581,108.67C126.301,108.747 125.76,108.913 125.379,109.039C124.997,109.165 124.438,109.364 124.135,109.482C123.832,109.599 123.365,109.791 123.096,109.908C122.827,110.025 122.231,110.311 121.771,110.543C121.311,110.775 120.623,111.151 120.242,111.379C119.861,111.607 119.3,111.962 118.995,112.169L118.441,112.546L118.284,112.297C118.198,112.16 117.904,111.681 117.632,111.233C117.36,110.785 116.953,110.096 116.729,109.704C116.505,109.312 116.178,108.725 116.003,108.4C115.828,108.074 115.642,107.728 115.589,107.629L115.492,107.45L115.722,106.9C115.848,106.597 116.057,106.026 116.188,105.632C116.318,105.237 116.489,104.648 116.569,104.323C116.648,103.998 116.759,103.463 116.815,103.134C116.872,102.806 116.949,102.255 116.987,101.911C117.035,101.476 117.056,100.946 117.056,100.165C117.056,99.391 117.035,98.848 116.987,98.412C116.949,98.064 116.881,97.551 116.834,97.271C116.788,96.99 116.696,96.524 116.631,96.233C116.566,95.944 116.439,95.462 116.349,95.163C116.26,94.864 116.104,94.393 116.003,94.115C115.903,93.837 115.715,93.376 115.588,93.09L115.356,92.569L115.545,92.198C115.65,91.995 115.9,91.54 116.102,91.188C116.304,90.836 116.656,90.249 116.883,89.883C117.111,89.518 117.552,88.843 117.862,88.384C118.172,87.924 118.469,87.496 118.52,87.432L118.614,87.316L119.06,87.628C119.305,87.8 119.718,88.075 119.976,88.238C120.234,88.402 120.691,88.677 120.991,88.85C121.292,89.022 121.86,89.325 122.255,89.523C122.65,89.72 123.249,90.001 123.585,90.146C123.921,90.292 124.472,90.512 124.808,90.637C125.144,90.761 125.649,90.937 125.929,91.028C126.21,91.12 126.705,91.267 127.03,91.356C127.355,91.445 127.823,91.563 128.069,91.619C128.316,91.675 128.756,91.767 129.048,91.823C129.339,91.879 129.844,91.962 130.169,92.008C130.494,92.055 131.032,92.12 131.364,92.154C131.697,92.189 132.397,92.234 132.92,92.256C133.527,92.28 134.23,92.28 134.862,92.255C135.407,92.234 136.055,92.197 136.302,92.173C136.55,92.15 137.035,92.093 137.38,92.048C137.725,92.003 138.248,91.923 138.542,91.87C138.836,91.817 139.296,91.726 139.565,91.667C139.834,91.609 140.266,91.505 140.523,91.435C140.781,91.366 141.265,91.229 141.598,91.13C141.931,91.03 142.527,90.828 142.922,90.681C143.317,90.534 143.897,90.304 144.212,90.169C144.526,90.035 145.141,89.746 145.578,89.527C146.016,89.309 146.648,88.969 146.985,88.772C147.321,88.576 147.908,88.209 148.289,87.958C148.67,87.706 149.239,87.308 149.553,87.072C149.867,86.837 150.317,86.484 150.552,86.287C150.787,86.091 151.221,85.712 151.516,85.443C151.811,85.176 152.288,84.713 152.576,84.417C152.864,84.12 153.284,83.666 153.509,83.409C153.734,83.152 154.038,82.794 154.186,82.615C154.333,82.436 154.636,82.042 154.861,81.739C155.086,81.436 155.434,80.941 155.636,80.638C155.837,80.335 156.141,79.856 156.311,79.572C156.481,79.288 156.785,78.747 156.986,78.369C157.188,77.991 157.484,77.393 157.643,77.04C157.803,76.686 158.041,76.126 158.173,75.796C158.304,75.466 158.523,74.866 158.658,74.462C158.793,74.058 158.996,73.384 159.108,72.965C159.22,72.545 159.376,71.885 159.455,71.497C159.534,71.11 159.644,70.49 159.7,70.12C159.756,69.751 159.83,69.17 159.864,68.831C159.898,68.491 159.948,67.758 159.974,67.202C160.009,66.438 160.009,65.946 159.974,65.19C159.947,64.639 159.899,63.923 159.866,63.598C159.832,63.272 159.767,62.74 159.72,62.416C159.674,62.09 159.574,61.51 159.499,61.126C159.422,60.741 159.295,60.168 159.215,59.851C159.136,59.534 158.98,58.977 158.871,58.613C158.761,58.249 158.568,57.667 158.442,57.32C158.316,56.972 158.072,56.358 157.901,55.954C157.729,55.551 157.412,54.872 157.195,54.446C156.979,54.02 156.643,53.401 156.449,53.069C156.254,52.739 155.959,52.258 155.793,52.002C155.626,51.746 155.321,51.301 155.114,51.014C154.908,50.726 154.533,50.235 154.281,49.921C154.03,49.607 153.662,49.167 153.464,48.942C153.265,48.718 152.837,48.262 152.51,47.929C152.184,47.595 151.66,47.092 151.347,46.81C151.033,46.529 150.501,46.079 150.164,45.811C149.828,45.543 149.314,45.154 149.023,44.947C148.731,44.74 148.328,44.464 148.126,44.334C147.924,44.204 147.554,43.973 147.303,43.821C147.052,43.67 146.556,43.389 146.202,43.198C145.848,43.008 145.274,42.72 144.926,42.56C144.579,42.399 144.01,42.153 143.662,42.012C143.315,41.872 142.758,41.663 142.424,41.548C142.091,41.433 141.562,41.264 141.248,41.174C140.934,41.083 140.381,40.938 140.019,40.85C139.657,40.763 139.114,40.645 138.811,40.588C138.509,40.531 138.012,40.448 137.709,40.404C137.406,40.36 136.876,40.295 136.532,40.261C136.189,40.227 135.46,40.178 134.913,40.152C134.171,40.118 133.665,40.118 132.915,40.152C132.364,40.178 131.635,40.227 131.295,40.262C130.956,40.296 130.375,40.37 130.006,40.427C129.636,40.483 129.019,40.593 128.635,40.67C128.25,40.748 127.59,40.904 127.167,41.017C126.744,41.13 126.095,41.323 125.725,41.447C125.355,41.57 124.706,41.808 124.284,41.976C123.861,42.144 123.243,42.408 122.909,42.563C122.576,42.717 122.022,42.994 121.68,43.178C121.338,43.362 120.828,43.65 120.548,43.818C120.268,43.986 119.763,44.307 119.427,44.531C119.091,44.756 118.531,45.155 118.182,45.419C117.834,45.682 117.275,46.132 116.939,46.419C116.603,46.706 115.952,47.318 115.491,47.778C115.03,48.239 114.418,48.891 114.13,49.228C113.842,49.564 113.373,50.151 113.087,50.532C112.802,50.913 112.403,51.473 112.202,51.776C112.001,52.078 111.699,52.555 111.531,52.836C111.364,53.116 111.089,53.602 110.92,53.916C110.751,54.23 110.473,54.785 110.302,55.149C110.131,55.513 109.854,56.156 109.687,56.576C109.52,56.996 109.302,57.588 109.2,57.89C109.099,58.193 108.935,58.726 108.835,59.074C108.735,59.422 108.596,59.959 108.526,60.266C108.455,60.574 108.352,61.064 108.297,61.358C108.242,61.651 108.16,62.142 108.116,62.449C108.072,62.755 108.007,63.291 107.972,63.638C107.938,63.986 107.891,64.718 107.869,65.266C107.841,65.937 107.841,66.57 107.869,67.207C107.892,67.727 107.939,68.434 107.973,68.779C108.007,69.124 108.073,69.664 108.118,69.978C108.164,70.292 108.257,70.832 108.324,71.18C108.392,71.528 108.501,72.04 108.567,72.317C108.633,72.595 108.759,73.072 108.848,73.377C108.936,73.682 109.063,74.097 109.129,74.299C109.194,74.501 109.335,74.905 109.44,75.196C109.545,75.488 109.769,76.046 109.937,76.439C110.104,76.831 110.432,77.528 110.664,77.988C110.897,78.448 111.273,79.136 111.501,79.517C111.729,79.898 112.105,80.49 112.339,80.832C112.571,81.174 112.761,81.468 112.761,81.485C112.76,81.501 112.379,81.747 111.915,82.031C111.45,82.315 110.749,82.735 110.357,82.964C109.964,83.193 109.249,83.596 108.767,83.86C108.285,84.123 107.805,84.381 107.7,84.431L107.51,84.523L106.885,84.236C106.541,84.078 106.094,83.885 105.893,83.807C105.691,83.729 105.361,83.608 105.159,83.539C104.957,83.47 104.535,83.341 104.221,83.253C103.907,83.165 103.412,83.045 103.121,82.986C102.829,82.928 102.352,82.844 102.061,82.8C101.769,82.756 101.292,82.7 101.001,82.675C100.709,82.649 100.04,82.628 99.513,82.628C98.986,82.628 98.326,82.649 98.045,82.675C97.765,82.701 97.292,82.757 96.993,82.801C96.694,82.845 96.263,82.919 96.035,82.966C95.806,83.012 95.381,83.112 95.089,83.187C94.796,83.263 94.292,83.415 93.967,83.526C93.643,83.637 93.265,83.771 93.126,83.822L92.874,83.913L92.554,83.776C92.379,83.701 91.813,83.424 91.297,83.163C90.782,82.901 90.011,82.485 89.585,82.239C89.159,81.993 88.535,81.621 88.199,81.412C87.863,81.204 87.581,81.027 87.573,81.02C87.565,81.012 87.732,80.734 87.945,80.402C88.157,80.071 88.481,79.542 88.665,79.228C88.848,78.915 89.142,78.373 89.318,78.026C89.494,77.678 89.733,77.183 89.849,76.925C89.966,76.667 90.171,76.182 90.305,75.848C90.439,75.513 90.631,74.999 90.731,74.706C90.832,74.413 90.985,73.935 91.072,73.643C91.159,73.352 91.287,72.888 91.357,72.611C91.426,72.335 91.528,71.904 91.582,71.653C91.636,71.403 91.726,70.922 91.783,70.586C91.839,70.25 91.923,69.672 91.967,69.302C92.011,68.932 92.068,68.345 92.093,67.997C92.118,67.65 92.138,66.833 92.137,66.183C92.137,65.533 92.117,64.735 92.092,64.41C92.068,64.085 92.021,63.573 91.988,63.273C91.956,62.973 91.884,62.441 91.829,62.091C91.774,61.741 91.682,61.225 91.623,60.945C91.564,60.664 91.433,60.105 91.331,59.701C91.228,59.298 91.027,58.603 90.882,58.158C90.737,57.713 90.521,57.098 90.402,56.792C90.283,56.487 90.089,56.016 89.972,55.747C89.855,55.478 89.579,54.9 89.358,54.463C89.138,54.026 88.808,53.411 88.624,53.097C88.44,52.784 88.134,52.288 87.944,51.997C87.753,51.706 87.44,51.247 87.247,50.978C87.054,50.709 86.681,50.219 86.417,49.891C86.153,49.562 85.683,49.011 85.371,48.668C85.06,48.324 84.579,47.823 84.301,47.554C84.023,47.285 83.63,46.918 83.429,46.738C83.227,46.559 82.905,46.281 82.713,46.121C82.521,45.961 82.098,45.629 81.772,45.383C81.447,45.137 80.907,44.752 80.572,44.529C80.238,44.305 79.717,43.975 79.414,43.794C79.111,43.614 78.598,43.324 78.274,43.151C77.95,42.978 77.43,42.719 77.12,42.575C76.809,42.431 76.339,42.224 76.078,42.115C75.816,42.006 75.355,41.825 75.052,41.713C74.749,41.601 74.226,41.423 73.89,41.318C73.554,41.214 72.958,41.046 72.565,40.945C72.173,40.844 71.54,40.7 71.159,40.624C70.778,40.549 70.2,40.45 69.875,40.403C69.55,40.357 69.017,40.292 68.692,40.259C68.368,40.226 67.707,40.18 67.225,40.156C66.743,40.134 66.147,40.118 65.9,40.121L65.901,40.123ZM66.308,43.275C67.406,43.284 68.03,43.307 68.449,43.354C68.774,43.391 69.324,43.465 69.672,43.519C70.02,43.573 70.61,43.682 70.982,43.763C71.354,43.842 72.007,44.008 72.433,44.13C72.859,44.252 73.516,44.465 73.894,44.603C74.272,44.741 74.802,44.948 75.071,45.063C75.341,45.177 75.902,45.44 76.316,45.646C76.731,45.852 77.327,46.172 77.641,46.356C77.955,46.54 78.448,46.847 78.738,47.037C79.027,47.227 79.55,47.599 79.9,47.862C80.249,48.126 80.756,48.53 81.025,48.76C81.294,48.99 81.891,49.556 82.351,50.018C82.811,50.48 83.409,51.124 83.679,51.449C83.95,51.774 84.327,52.251 84.518,52.509C84.709,52.767 85.012,53.198 85.192,53.467C85.371,53.736 85.656,54.186 85.825,54.467C85.994,54.748 86.28,55.262 86.46,55.609C86.641,55.956 86.883,56.45 87,56.708C87.116,56.966 87.316,57.443 87.445,57.768C87.575,58.093 87.783,58.671 87.907,59.052C88.032,59.434 88.209,60.032 88.3,60.382C88.391,60.732 88.52,61.286 88.587,61.613C88.653,61.94 88.753,62.525 88.808,62.913C88.864,63.301 88.933,63.847 88.962,64.128C88.996,64.451 89.015,65.21 89.015,66.207C89.015,67.213 88.996,67.959 88.962,68.286C88.932,68.566 88.871,69.061 88.827,69.386C88.782,69.711 88.69,70.262 88.623,70.609C88.556,70.957 88.426,71.535 88.335,71.894C88.244,72.252 88.069,72.858 87.946,73.239C87.823,73.62 87.607,74.225 87.466,74.584C87.325,74.943 87.105,75.466 86.978,75.746C86.851,76.026 86.617,76.503 86.458,76.806C86.299,77.109 86.022,77.604 85.842,77.907C85.663,78.209 85.406,78.622 85.273,78.824C85.139,79.026 85.015,79.206 84.998,79.225C84.981,79.244 84.759,79.108 84.505,78.923C84.25,78.737 83.592,78.247 83.043,77.832C82.494,77.417 81.631,76.747 81.127,76.343C80.622,75.939 79.943,75.388 79.618,75.119C79.293,74.85 78.642,74.299 78.171,73.896C77.7,73.492 76.912,72.803 76.418,72.365C75.925,71.927 75.163,71.24 74.726,70.838C74.289,70.436 73.464,69.662 72.892,69.118C72.32,68.575 71.766,68.041 71.66,67.932L71.467,67.731L71.556,67.325C71.627,66.997 71.644,66.78 71.645,66.224C71.645,65.725 71.626,65.431 71.574,65.173C71.535,64.977 71.45,64.652 71.384,64.453C71.319,64.252 71.219,63.998 71.163,63.887L71.06,63.684L71.456,63.449C71.674,63.32 72.036,63.091 72.261,62.941C72.486,62.79 72.926,62.476 73.239,62.242C73.552,62.007 74.038,61.625 74.318,61.392C74.599,61.158 75.076,60.747 75.378,60.477C75.681,60.208 76.314,59.601 76.785,59.13C77.256,58.66 77.878,58.008 78.168,57.683C78.457,57.358 78.859,56.89 79.06,56.644C79.262,56.397 79.586,55.984 79.78,55.726C79.975,55.468 80.262,55.065 80.419,54.83C80.576,54.594 80.8,54.24 80.916,54.042C81.033,53.845 81.193,53.554 81.272,53.397C81.351,53.239 81.482,52.915 81.561,52.677C81.669,52.357 81.707,52.169 81.711,51.956C81.714,51.737 81.695,51.634 81.634,51.526C81.587,51.444 81.476,51.345 81.37,51.29C81.213,51.208 81.145,51.198 80.881,51.214C80.69,51.226 80.43,51.281 80.194,51.36C79.985,51.431 79.579,51.608 79.292,51.753C79.005,51.899 78.544,52.161 78.267,52.336C77.99,52.51 77.525,52.826 77.233,53.037C76.942,53.248 76.437,53.634 76.112,53.895C75.787,54.156 75.255,54.605 74.93,54.892C74.605,55.18 74.002,55.747 73.59,56.152C73.178,56.557 72.619,57.127 72.347,57.419C72.075,57.711 71.65,58.185 71.404,58.473C71.157,58.761 70.804,59.191 70.619,59.43C70.433,59.669 70.137,60.066 69.961,60.313C69.785,60.559 69.536,60.931 69.407,61.138C69.279,61.346 69.165,61.515 69.154,61.515C69.144,61.515 69.012,61.444 68.862,61.356C68.711,61.268 68.482,61.149 68.353,61.092C68.223,61.034 67.948,60.934 67.742,60.868C67.536,60.802 67.166,60.717 66.919,60.678C66.573,60.624 66.332,60.613 65.859,60.631C65.479,60.647 65.117,60.686 64.901,60.735C64.711,60.779 64.377,60.879 64.16,60.957C63.942,61.035 63.608,61.184 63.418,61.287C63.228,61.391 62.924,61.586 62.743,61.72C62.563,61.854 62.271,62.109 62.096,62.288C61.92,62.466 61.661,62.773 61.521,62.971C61.381,63.168 61.177,63.513 61.068,63.737C60.959,63.961 60.831,64.264 60.782,64.41C60.734,64.555 60.659,64.83 60.615,65.021C60.564,65.244 60.527,65.594 60.513,66C60.496,66.48 60.507,66.729 60.557,67.039C60.594,67.263 60.662,67.575 60.708,67.732C60.754,67.889 60.855,68.172 60.933,68.359C61.011,68.548 61.059,68.717 61.041,68.734C61.023,68.752 60.807,68.888 60.561,69.037C60.315,69.186 59.939,69.429 59.725,69.577C59.512,69.725 59.108,70.02 58.827,70.233C58.547,70.446 58.061,70.835 57.747,71.097C57.433,71.359 56.929,71.799 56.626,72.075C56.323,72.351 55.745,72.909 55.342,73.315C54.938,73.722 54.387,74.301 54.117,74.602C53.847,74.905 53.464,75.344 53.267,75.58C53.069,75.815 52.72,76.255 52.49,76.558C52.26,76.861 51.915,77.347 51.723,77.638C51.531,77.93 51.264,78.368 51.128,78.612C50.993,78.856 50.818,79.215 50.741,79.409C50.663,79.604 50.569,79.909 50.532,80.087C50.492,80.278 50.475,80.48 50.49,80.581C50.504,80.674 50.556,80.812 50.606,80.887C50.655,80.961 50.76,81.055 50.838,81.096C50.953,81.156 51.045,81.167 51.326,81.151C51.576,81.137 51.776,81.096 52.04,81.001C52.242,80.93 52.572,80.792 52.774,80.695C52.975,80.598 53.388,80.37 53.691,80.189C53.994,80.007 54.522,79.657 54.866,79.41C55.209,79.164 55.622,78.857 55.783,78.729C55.944,78.601 56.241,78.359 56.443,78.191C56.644,78.023 57.03,77.693 57.299,77.458C57.568,77.222 58.189,76.634 58.679,76.152C59.169,75.669 59.812,75.008 60.107,74.683C60.403,74.357 60.83,73.868 61.057,73.595C61.284,73.322 61.633,72.882 61.832,72.617C62.031,72.352 62.277,72.015 62.38,71.87C62.482,71.724 62.663,71.449 62.781,71.258C62.9,71.068 63.001,70.906 63.008,70.899C63.014,70.892 63.144,70.957 63.297,71.044C63.451,71.131 63.733,71.269 63.923,71.35C64.114,71.432 64.407,71.536 64.575,71.582C64.744,71.628 65.065,71.693 65.289,71.726C65.513,71.76 65.868,71.788 66.078,71.788C66.289,71.788 66.649,71.76 66.879,71.726C67.109,71.692 67.444,71.622 67.623,71.569L67.948,71.475L68.555,72.025C68.888,72.327 69.633,73.024 70.21,73.572C70.787,74.12 71.677,75.002 72.189,75.533C72.7,76.063 73.357,76.754 73.647,77.069C73.938,77.383 74.396,77.888 74.666,78.19C74.936,78.492 75.422,79.051 75.748,79.432C76.074,79.813 76.625,80.474 76.973,80.9C77.321,81.326 77.864,82.005 78.178,82.41C78.493,82.814 78.994,83.472 79.29,83.872C79.587,84.271 79.814,84.611 79.795,84.627C79.776,84.643 79.632,84.749 79.475,84.862C79.318,84.976 78.924,85.243 78.599,85.456C78.274,85.668 77.733,85.998 77.396,86.189C77.06,86.38 76.62,86.618 76.418,86.719C76.216,86.82 75.84,86.999 75.582,87.116C75.325,87.233 74.82,87.444 74.461,87.585C74.102,87.726 73.497,87.942 73.116,88.065C72.735,88.188 72.129,88.364 71.771,88.455C71.412,88.546 70.834,88.675 70.487,88.742C70.139,88.81 69.588,88.901 69.264,88.946C68.939,88.991 68.443,89.051 68.163,89.081C67.836,89.115 67.09,89.134 66.084,89.134C65.087,89.134 64.328,89.115 64.005,89.081C63.725,89.052 63.178,88.983 62.79,88.928C62.402,88.873 61.817,88.773 61.49,88.707C61.163,88.64 60.618,88.513 60.279,88.425C59.941,88.337 59.342,88.16 58.95,88.032C58.558,87.905 57.969,87.695 57.643,87.565C57.316,87.435 56.821,87.225 56.542,87.097C56.263,86.971 55.77,86.727 55.444,86.558C55.119,86.388 54.624,86.111 54.343,85.943C54.063,85.775 53.618,85.493 53.353,85.317C53.089,85.14 52.658,84.837 52.395,84.643C52.133,84.449 51.652,84.069 51.327,83.8C51.001,83.529 50.349,82.922 49.875,82.45C49.402,81.979 48.811,81.349 48.561,81.051C48.31,80.752 47.94,80.29 47.739,80.023C47.537,79.756 47.191,79.266 46.97,78.935C46.748,78.603 46.418,78.075 46.233,77.761C46.051,77.447 45.766,76.924 45.601,76.6C45.436,76.274 45.192,75.761 45.057,75.458C44.924,75.155 44.701,74.606 44.563,74.237C44.425,73.868 44.222,73.272 44.113,72.912C44.004,72.552 43.851,71.991 43.771,71.667C43.692,71.341 43.582,70.837 43.525,70.545C43.469,70.254 43.386,69.749 43.342,69.424C43.297,69.099 43.236,68.604 43.207,68.324C43.172,67.994 43.153,67.24 43.153,66.184C43.153,64.876 43.168,64.42 43.228,63.881C43.269,63.512 43.346,62.934 43.399,62.596C43.452,62.257 43.56,61.677 43.641,61.305C43.72,60.933 43.886,60.281 44.007,59.855C44.129,59.429 44.342,58.774 44.479,58.398C44.616,58.023 44.823,57.493 44.937,57.221C45.052,56.948 45.334,56.35 45.564,55.89C45.795,55.43 46.132,54.807 46.313,54.504C46.495,54.201 46.807,53.71 47.008,53.412C47.209,53.113 47.528,52.663 47.717,52.411C47.906,52.159 48.259,51.715 48.501,51.425C48.743,51.134 49.272,50.56 49.675,50.148C50.079,49.736 50.654,49.187 50.953,48.926C51.251,48.666 51.692,48.301 51.931,48.114C52.17,47.928 52.571,47.63 52.822,47.451C53.072,47.272 53.503,46.982 53.78,46.807C54.056,46.633 54.494,46.369 54.751,46.222C55.009,46.074 55.484,45.822 55.806,45.66C56.128,45.499 56.623,45.266 56.906,45.143C57.189,45.019 57.733,44.802 58.114,44.661C58.496,44.519 59.055,44.329 59.358,44.238C59.661,44.147 60.083,44.027 60.295,43.971C60.509,43.914 60.986,43.804 61.355,43.725C61.725,43.646 62.349,43.536 62.741,43.48C63.134,43.424 63.684,43.359 63.964,43.335C64.245,43.312 64.538,43.286 64.617,43.277C64.695,43.268 65.456,43.267 66.308,43.273L66.308,43.275ZM134.143,43.275C135.241,43.284 135.864,43.307 136.283,43.354C136.608,43.391 137.159,43.465 137.507,43.519C137.854,43.573 138.451,43.684 138.832,43.766C139.212,43.847 139.867,44.013 140.286,44.134C140.705,44.255 141.32,44.453 141.652,44.573C141.984,44.693 142.494,44.89 142.785,45.01C143.077,45.129 143.71,45.425 144.192,45.667C144.674,45.908 145.316,46.254 145.618,46.436C145.921,46.617 146.413,46.93 146.711,47.13C147.009,47.331 147.459,47.65 147.711,47.839C147.963,48.028 148.407,48.38 148.698,48.621C148.988,48.862 149.64,49.473 150.146,49.979C150.652,50.485 151.263,51.137 151.504,51.427C151.745,51.718 152.094,52.158 152.279,52.406C152.464,52.653 152.754,53.058 152.924,53.304C153.094,53.551 153.419,54.064 153.648,54.446C153.876,54.827 154.242,55.496 154.46,55.934C154.678,56.371 154.953,56.956 155.07,57.234C155.187,57.513 155.4,58.063 155.543,58.457C155.686,58.852 155.886,59.468 155.988,59.827C156.09,60.185 156.229,60.717 156.296,61.009C156.363,61.3 156.463,61.786 156.518,62.089C156.574,62.392 156.656,62.933 156.701,63.292C156.746,63.651 156.805,64.242 156.831,64.606C156.862,65.028 156.872,65.761 156.858,66.624C156.845,67.445 156.811,68.205 156.772,68.551C156.737,68.865 156.679,69.323 156.643,69.57C156.607,69.816 156.524,70.293 156.458,70.63C156.392,70.966 156.266,71.525 156.178,71.873C156.091,72.22 155.938,72.762 155.838,73.076C155.738,73.39 155.582,73.853 155.491,74.106C155.4,74.359 155.21,74.836 155.07,75.166C154.93,75.496 154.655,76.087 154.46,76.48C154.264,76.872 153.953,77.45 153.769,77.764C153.585,78.078 153.269,78.582 153.068,78.885C152.866,79.188 152.545,79.646 152.353,79.904C152.162,80.162 151.783,80.639 151.513,80.963C151.242,81.288 150.728,81.853 150.371,82.218C150.015,82.584 149.513,83.07 149.256,83.299C148.999,83.528 148.53,83.923 148.213,84.177C147.896,84.431 147.42,84.788 147.156,84.972C146.893,85.155 146.442,85.455 146.156,85.639C145.869,85.822 145.338,86.136 144.975,86.337C144.611,86.537 144.016,86.84 143.651,87.009C143.287,87.179 142.75,87.413 142.459,87.53C142.168,87.647 141.553,87.866 141.093,88.018C140.634,88.17 139.964,88.368 139.605,88.459C139.247,88.549 138.669,88.678 138.321,88.745C137.974,88.813 137.424,88.905 137.098,88.949C136.773,88.994 136.278,89.055 135.998,89.084C135.671,89.118 134.925,89.137 133.919,89.137C132.912,89.137 132.166,89.118 131.839,89.084C131.559,89.055 131.064,88.994 130.739,88.949C130.414,88.905 129.864,88.813 129.516,88.745C129.168,88.678 128.59,88.549 128.232,88.458C127.873,88.368 127.176,88.16 126.683,87.996C126.189,87.833 125.492,87.576 125.133,87.426C124.775,87.276 124.169,87.001 123.788,86.815C123.407,86.628 122.82,86.317 122.484,86.123C122.147,85.929 121.555,85.559 121.169,85.301C120.715,84.997 120.475,84.813 120.494,84.782C120.509,84.756 120.78,84.413 121.094,84.021C121.409,83.629 121.98,82.932 122.364,82.472C122.748,82.012 123.456,81.187 123.939,80.638C124.42,80.088 125.16,79.263 125.582,78.803C126.003,78.343 126.811,77.481 127.376,76.887C127.941,76.293 129.298,74.922 130.39,73.84C131.483,72.757 132.439,71.824 132.517,71.765L132.657,71.658L132.951,71.708C133.113,71.735 133.466,71.767 133.735,71.78C134.082,71.795 134.358,71.782 134.683,71.734C134.936,71.696 135.303,71.62 135.499,71.564C135.695,71.507 136.06,71.363 136.311,71.242C136.562,71.122 136.85,70.967 136.951,70.898C137.051,70.829 137.148,70.773 137.167,70.774C137.185,70.774 137.277,70.889 137.371,71.029C137.466,71.169 137.711,71.494 137.917,71.752C138.123,72.009 138.49,72.44 138.73,72.709C138.971,72.978 139.56,73.584 140.039,74.055C140.518,74.527 141.13,75.105 141.399,75.341C141.668,75.576 142.053,75.906 142.255,76.075C142.457,76.243 142.833,76.547 143.091,76.751C143.349,76.955 143.802,77.298 144.098,77.514C144.395,77.73 144.927,78.098 145.282,78.331C145.636,78.564 146.218,78.921 146.574,79.124C146.93,79.327 147.443,79.593 147.714,79.714C147.985,79.836 148.382,79.992 148.594,80.061C148.808,80.129 149.097,80.207 149.238,80.234C149.378,80.26 149.603,80.272 149.737,80.26C149.871,80.248 150.039,80.203 150.111,80.161C150.183,80.119 150.28,80.021 150.325,79.943C150.385,79.841 150.408,79.734 150.405,79.557C150.404,79.419 150.361,79.189 150.308,79.027C150.256,78.871 150.15,78.615 150.073,78.46C149.995,78.305 149.83,78.014 149.706,77.813C149.582,77.613 149.319,77.231 149.121,76.967C148.923,76.702 148.537,76.222 148.262,75.902C147.987,75.58 147.339,74.895 146.822,74.378C146.306,73.861 145.572,73.166 145.19,72.833C144.809,72.5 144.232,72.015 143.906,71.754C143.581,71.494 143.104,71.123 142.846,70.93C142.589,70.737 142.066,70.368 141.685,70.11C141.303,69.852 140.721,69.483 140.39,69.29C140.059,69.097 139.619,68.854 139.412,68.75C139.204,68.646 139.029,68.556 139.021,68.55C139.014,68.543 139.072,68.366 139.151,68.157C139.228,67.947 139.335,67.583 139.387,67.348C139.466,66.992 139.482,66.8 139.482,66.207C139.483,65.667 139.465,65.409 139.409,65.147C139.368,64.957 139.281,64.637 139.216,64.434C139.151,64.232 139.02,63.91 138.923,63.72C138.828,63.529 138.658,63.235 138.546,63.068C138.434,62.899 138.122,62.54 137.853,62.269C137.584,61.998 137.235,61.693 137.078,61.59C136.921,61.487 136.655,61.33 136.487,61.24C136.319,61.15 136.016,61.019 135.814,60.948C135.612,60.877 135.292,60.783 135.101,60.739C134.89,60.69 134.522,60.65 134.163,60.635C133.717,60.617 133.458,60.628 133.106,60.68C132.85,60.718 132.466,60.805 132.254,60.873C132.041,60.941 131.735,61.057 131.573,61.131L131.279,61.264L131.034,60.913C130.9,60.719 130.641,60.375 130.46,60.147C130.278,59.92 129.902,59.48 129.624,59.169C129.346,58.858 128.754,58.246 128.308,57.808C127.862,57.371 127.278,56.819 127.009,56.583C126.74,56.346 126.281,55.954 125.99,55.712C125.698,55.47 125.139,55.031 124.746,54.735C124.354,54.44 123.859,54.077 123.646,53.929C123.433,53.78 123.029,53.514 122.749,53.337C122.469,53.16 122.083,52.925 121.893,52.816C121.702,52.707 121.299,52.494 120.996,52.343C120.693,52.192 120.271,52.005 120.058,51.926C119.845,51.847 119.551,51.751 119.406,51.712C119.26,51.673 118.985,51.639 118.794,51.637C118.532,51.634 118.411,51.651 118.296,51.709C118.212,51.75 118.103,51.85 118.054,51.929C117.986,52.04 117.964,52.135 117.966,52.327C117.967,52.474 118.008,52.697 118.061,52.86C118.112,53.015 118.233,53.299 118.329,53.493C118.426,53.687 118.655,54.069 118.838,54.342C119.02,54.616 119.318,55.026 119.498,55.254C119.679,55.482 120.01,55.879 120.235,56.137C120.459,56.395 121.066,57.029 121.584,57.546C122.101,58.064 122.809,58.735 123.156,59.037C123.504,59.34 124.007,59.768 124.275,59.987C124.543,60.207 125.075,60.62 125.457,60.906C125.84,61.192 126.428,61.609 126.764,61.833C127.1,62.057 127.568,62.356 127.804,62.498C128.039,62.64 128.438,62.864 128.69,62.997C128.943,63.129 129.149,63.243 129.149,63.25C129.149,63.257 129.058,63.444 128.947,63.665C128.836,63.886 128.691,64.231 128.624,64.433C128.557,64.635 128.469,64.956 128.428,65.147C128.373,65.407 128.354,65.671 128.355,66.207C128.355,66.743 128.374,67.006 128.43,67.267C128.471,67.457 128.551,67.755 128.607,67.929L128.711,68.244L128.557,68.418C128.472,68.513 127.972,69.037 127.446,69.582C126.92,70.126 126.01,71.027 125.424,71.584C124.838,72.141 124.047,72.877 123.666,73.22C123.285,73.563 122.661,74.112 122.28,74.441C121.899,74.769 121.275,75.294 120.894,75.608C120.513,75.921 119.925,76.395 119.589,76.661C119.253,76.927 118.482,77.515 117.877,77.968C117.272,78.421 116.472,79.005 116.1,79.266C115.728,79.527 115.406,79.741 115.385,79.741C115.363,79.741 115.105,79.378 114.812,78.936C114.518,78.493 114.122,77.855 113.932,77.519C113.742,77.183 113.493,76.722 113.379,76.495C113.266,76.268 113.087,75.891 112.983,75.659C112.878,75.427 112.7,75.007 112.588,74.727C112.475,74.446 112.293,73.951 112.183,73.626C112.073,73.301 111.928,72.847 111.862,72.619C111.795,72.39 111.668,71.903 111.579,71.538C111.491,71.173 111.372,70.608 111.315,70.283C111.258,69.958 111.175,69.408 111.131,69.06C111.087,68.712 111.033,68.171 111.01,67.858C110.986,67.544 110.968,66.8 110.967,66.205C110.967,65.609 110.986,64.876 111.009,64.574C111.032,64.272 111.078,63.787 111.112,63.496C111.147,63.204 111.22,62.691 111.276,62.354C111.332,62.018 111.443,61.458 111.522,61.111C111.602,60.763 111.711,60.323 111.764,60.132C111.817,59.942 111.922,59.584 111.998,59.338C112.074,59.091 112.233,58.624 112.352,58.299C112.47,57.974 112.685,57.433 112.831,57.096C112.977,56.759 113.24,56.199 113.416,55.852C113.591,55.504 113.885,54.963 114.068,54.649C114.252,54.336 114.585,53.804 114.809,53.468C115.033,53.133 115.405,52.61 115.636,52.307C115.866,52.003 116.243,51.535 116.473,51.266C116.703,50.997 117.259,50.409 117.71,49.958C118.161,49.508 118.777,48.932 119.08,48.677C119.383,48.422 119.869,48.037 120.16,47.82C120.451,47.604 120.868,47.305 121.087,47.155C121.305,47.006 121.76,46.718 122.098,46.514C122.436,46.311 122.972,46.009 123.291,45.844C123.609,45.678 124.117,45.429 124.42,45.291C124.723,45.153 125.218,44.943 125.521,44.825C125.824,44.706 126.318,44.527 126.621,44.426C126.924,44.325 127.438,44.167 127.763,44.075C128.088,43.983 128.693,43.836 129.108,43.747C129.523,43.658 130.183,43.54 130.576,43.484C130.968,43.427 131.519,43.362 131.799,43.338C132.079,43.314 132.372,43.288 132.451,43.279C132.53,43.271 133.291,43.269 134.143,43.275L134.143,43.275ZM66.222,64.882C66.352,64.893 66.555,64.948 66.677,65.005C66.797,65.062 66.964,65.184 67.047,65.276C67.13,65.368 67.236,65.528 67.283,65.631C67.345,65.768 67.368,65.903 67.368,66.125C67.368,66.348 67.345,66.483 67.283,66.62C67.236,66.723 67.13,66.883 67.047,66.975C66.964,67.067 66.792,67.193 66.665,67.255C66.474,67.349 66.382,67.368 66.129,67.368C65.898,67.367 65.77,67.343 65.61,67.271C65.493,67.219 65.321,67.094 65.229,66.994C65.137,66.894 65.026,66.733 64.983,66.636C64.94,66.538 64.894,66.378 64.88,66.28C64.867,66.181 64.877,65.996 64.904,65.869C64.93,65.741 65.01,65.551 65.082,65.445C65.153,65.339 65.301,65.189 65.41,65.111C65.52,65.032 65.694,64.945 65.798,64.915C65.904,64.885 66.088,64.871 66.222,64.882L66.222,64.882ZM134.065,64.884C134.21,64.896 134.395,64.945 134.52,65.006C134.636,65.062 134.798,65.184 134.881,65.276C134.964,65.368 135.071,65.528 135.118,65.631C135.182,65.77 135.205,65.9 135.205,66.125C135.205,66.357 135.182,66.481 135.112,66.635C135.061,66.747 134.944,66.916 134.852,67.01C134.76,67.104 134.591,67.222 134.477,67.273C134.322,67.343 134.191,67.367 133.963,67.368C133.709,67.368 133.618,67.349 133.427,67.256C133.3,67.193 133.128,67.067 133.045,66.975C132.962,66.883 132.856,66.723 132.809,66.62C132.747,66.484 132.723,66.346 132.722,66.125C132.721,65.871 132.74,65.78 132.835,65.586C132.897,65.458 133.023,65.289 133.114,65.212C133.204,65.134 133.345,65.039 133.427,65C133.509,64.961 133.631,64.915 133.698,64.897C133.765,64.88 133.93,64.874 134.065,64.884L134.065,64.884ZM66.333,110.865C67.36,110.874 68.004,110.899 68.412,110.945C68.737,110.982 69.251,111.049 69.553,111.095C69.856,111.14 70.367,111.231 70.69,111.296C71.013,111.362 71.563,111.489 71.913,111.58C72.263,111.671 72.898,111.862 73.324,112.004C73.75,112.146 74.331,112.355 74.614,112.468C74.898,112.582 75.357,112.778 75.633,112.905C75.91,113.031 76.366,113.254 76.646,113.401C76.927,113.548 77.348,113.779 77.584,113.914C77.82,114.049 78.265,114.325 78.575,114.526C78.915,114.748 79.13,114.913 79.118,114.944C79.107,114.972 78.929,115.231 78.722,115.519C78.515,115.807 78.051,116.437 77.69,116.92C77.33,117.401 76.724,118.19 76.345,118.673C75.966,119.154 75.407,119.852 75.103,120.222C74.8,120.591 74.258,121.243 73.898,121.669C73.538,122.095 72.915,122.819 72.512,123.279C72.109,123.739 71.439,124.491 71.023,124.95C70.607,125.41 69.889,126.19 69.427,126.683C68.965,127.176 68.396,127.776 68.163,128.017L67.739,128.453L67.311,128.348C66.936,128.256 66.791,128.242 66.129,128.237C65.538,128.233 65.299,128.248 65.028,128.306C64.838,128.347 64.522,128.434 64.327,128.498C64.132,128.563 63.816,128.694 63.624,128.788C63.433,128.883 63.27,128.952 63.262,128.943C63.255,128.933 63.108,128.714 62.938,128.456C62.766,128.198 62.469,127.786 62.277,127.539C62.085,127.292 61.74,126.871 61.511,126.601C61.282,126.332 60.7,125.711 60.218,125.22C59.736,124.73 59.059,124.072 58.713,123.76C58.368,123.447 57.873,123.012 57.613,122.794C57.353,122.576 56.892,122.204 56.59,121.969C56.287,121.733 55.819,121.383 55.55,121.191C55.281,121 54.817,120.683 54.518,120.488C54.22,120.293 53.706,119.984 53.376,119.8C53.047,119.617 52.575,119.381 52.329,119.276C52.082,119.171 51.716,119.036 51.514,118.976C51.255,118.899 51.046,118.865 50.801,118.861C50.518,118.857 50.428,118.871 50.312,118.94C50.233,118.986 50.128,119.085 50.077,119.16C50.006,119.265 49.985,119.354 49.985,119.551C49.985,119.695 50.023,119.927 50.071,120.085C50.119,120.239 50.248,120.548 50.36,120.772C50.471,120.996 50.736,121.442 50.949,121.762C51.162,122.082 51.518,122.573 51.742,122.854C51.965,123.134 52.345,123.587 52.585,123.861C52.824,124.135 53.425,124.763 53.919,125.256C54.412,125.749 55.101,126.404 55.448,126.711C55.796,127.018 56.318,127.464 56.61,127.703C56.901,127.941 57.415,128.344 57.751,128.597C58.088,128.849 58.565,129.195 58.811,129.363C59.058,129.532 59.501,129.818 59.797,129.999C60.092,130.18 60.551,130.442 60.816,130.581C61.081,130.72 61.303,130.837 61.308,130.841C61.314,130.845 61.227,131.029 61.115,131.249C61.002,131.469 60.848,131.844 60.771,132.081C60.695,132.319 60.601,132.714 60.563,132.961C60.51,133.298 60.498,133.556 60.514,134C60.526,134.325 60.566,134.729 60.602,134.897C60.638,135.065 60.716,135.35 60.774,135.529C60.833,135.709 60.959,136.02 61.056,136.222C61.152,136.424 61.323,136.727 61.435,136.895C61.547,137.063 61.749,137.325 61.885,137.477C62.021,137.629 62.256,137.863 62.408,137.998C62.56,138.133 62.813,138.329 62.969,138.435C63.126,138.541 63.411,138.706 63.601,138.802C63.792,138.898 64.141,139.038 64.376,139.114C64.612,139.19 65.006,139.284 65.252,139.322C65.587,139.374 65.846,139.386 66.272,139.371C66.585,139.359 66.989,139.318 67.167,139.28C67.346,139.243 67.639,139.166 67.819,139.109C68,139.053 68.329,138.917 68.552,138.807C68.775,138.697 68.971,138.607 68.987,138.607C69.004,138.607 69.122,138.755 69.249,138.936C69.377,139.117 69.647,139.47 69.849,139.72C70.052,139.971 70.357,140.332 70.527,140.523C70.697,140.713 71.065,141.114 71.344,141.412C71.624,141.711 72.193,142.272 72.609,142.66C73.025,143.049 73.53,143.51 73.732,143.687C73.934,143.864 74.338,144.203 74.629,144.441C74.92,144.678 75.425,145.075 75.752,145.322C76.079,145.568 76.681,145.993 77.092,146.266C77.503,146.538 78.082,146.899 78.379,147.067C78.677,147.235 79.064,147.438 79.241,147.519C79.417,147.599 79.694,147.718 79.855,147.783C80.018,147.847 80.293,147.938 80.467,147.983C80.648,148.031 80.92,148.068 81.099,148.069C81.35,148.07 81.446,148.053 81.571,147.982C81.658,147.934 81.76,147.842 81.797,147.779C81.835,147.716 81.876,147.585 81.889,147.487C81.903,147.384 81.886,147.196 81.848,147.033C81.812,146.881 81.727,146.625 81.658,146.463C81.59,146.301 81.449,146.022 81.347,145.843C81.244,145.664 81.05,145.352 80.915,145.15C80.779,144.948 80.536,144.607 80.374,144.393C80.211,144.178 79.91,143.802 79.704,143.557C79.498,143.312 79.037,142.797 78.679,142.412C78.322,142.027 77.677,141.382 77.247,140.979C76.816,140.577 76.252,140.066 75.994,139.844C75.737,139.623 75.296,139.257 75.016,139.032C74.736,138.807 74.323,138.485 74.099,138.316C73.874,138.148 73.452,137.844 73.161,137.64C72.869,137.437 72.439,137.153 72.203,137.008C71.967,136.863 71.619,136.657 71.428,136.549C71.238,136.442 71.077,136.35 71.071,136.346C71.066,136.341 71.124,136.199 71.202,136.031C71.28,135.863 71.389,135.568 71.445,135.375C71.501,135.182 71.575,134.833 71.61,134.599C71.644,134.365 71.673,134.004 71.673,133.797C71.673,133.59 71.645,133.233 71.611,133.005C71.578,132.778 71.515,132.47 71.473,132.323L71.396,132.054L71.846,131.549C72.094,131.272 72.677,130.641 73.142,130.148C73.607,129.655 74.481,128.765 75.083,128.171C75.685,127.577 76.444,126.841 76.769,126.537C77.094,126.232 77.718,125.665 78.155,125.276C78.592,124.888 79.306,124.268 79.742,123.899C80.178,123.53 80.949,122.895 81.454,122.489C81.96,122.083 82.86,121.387 83.453,120.941L84.531,120.131L84.628,120.248C84.681,120.312 84.95,120.703 85.226,121.118C85.503,121.533 85.87,122.12 86.042,122.423C86.215,122.725 86.527,123.322 86.736,123.748C86.945,124.174 87.244,124.844 87.4,125.237C87.556,125.63 87.795,126.29 87.929,126.704C88.064,127.119 88.248,127.751 88.339,128.11C88.43,128.468 88.56,129.046 88.627,129.394C88.694,129.742 88.777,130.218 88.811,130.454C88.846,130.689 88.903,131.148 88.939,131.473C88.977,131.817 89.014,132.601 89.028,133.349C89.042,134.16 89.032,134.888 89.002,135.326C88.975,135.706 88.917,136.303 88.873,136.65C88.83,136.998 88.747,137.548 88.691,137.873C88.634,138.198 88.496,138.838 88.384,139.294C88.272,139.75 88.069,140.465 87.933,140.884C87.796,141.302 87.579,141.91 87.45,142.235C87.321,142.56 87.12,143.037 87.004,143.295C86.887,143.553 86.645,144.048 86.464,144.394C86.284,144.741 85.998,145.255 85.829,145.536C85.66,145.817 85.375,146.267 85.196,146.536C85.016,146.805 84.713,147.236 84.522,147.494C84.331,147.752 83.954,148.229 83.684,148.554C83.414,148.879 82.816,149.523 82.355,149.985C81.895,150.447 81.298,151.013 81.029,151.243C80.76,151.473 80.254,151.877 79.904,152.141C79.554,152.405 79.031,152.776 78.742,152.966C78.452,153.156 77.959,153.463 77.645,153.648C77.331,153.833 76.671,154.182 76.178,154.424C75.684,154.666 75.047,154.958 74.761,155.073C74.475,155.188 74.007,155.365 73.722,155.467C73.436,155.569 72.863,155.751 72.448,155.871C72.033,155.991 71.391,156.154 71.021,156.233C70.651,156.313 70.119,156.415 69.839,156.46C69.559,156.505 69.1,156.569 68.819,156.603C68.539,156.636 68.057,156.683 67.747,156.707C67.438,156.73 66.697,156.75 66.102,156.75C65.506,156.75 64.741,156.73 64.402,156.706C64.062,156.681 63.447,156.616 63.034,156.561C62.622,156.505 62.044,156.413 61.75,156.356C61.457,156.299 61.024,156.206 60.789,156.151C60.553,156.096 60.068,155.968 59.712,155.867C59.354,155.767 58.732,155.564 58.328,155.418C57.925,155.271 57.341,155.043 57.031,154.91C56.721,154.778 56.178,154.524 55.825,154.347C55.472,154.17 54.962,153.897 54.691,153.742C54.421,153.586 53.957,153.304 53.66,153.116C53.363,152.927 52.809,152.541 52.428,152.257C52.048,151.973 51.521,151.561 51.258,151.341C50.995,151.122 50.367,150.529 49.86,150.023C49.355,149.518 48.743,148.866 48.503,148.576C48.262,148.285 47.91,147.841 47.721,147.589C47.532,147.337 47.213,146.887 47.012,146.589C46.811,146.291 46.499,145.799 46.317,145.496C46.136,145.193 45.79,144.551 45.548,144.069C45.307,143.587 45.011,142.954 44.892,142.663C44.772,142.372 44.576,141.862 44.455,141.531C44.335,141.2 44.136,140.578 44.013,140.15C43.89,139.722 43.724,139.068 43.644,138.696C43.564,138.324 43.456,137.743 43.403,137.405C43.35,137.067 43.273,136.488 43.232,136.119C43.172,135.58 43.157,135.124 43.157,133.817C43.157,132.76 43.176,132.007 43.211,131.677C43.24,131.396 43.301,130.901 43.346,130.576C43.391,130.251 43.473,129.746 43.53,129.455C43.585,129.163 43.696,128.659 43.775,128.334C43.854,128.009 44.008,127.448 44.117,127.088C44.226,126.729 44.429,126.133 44.567,125.764C44.705,125.395 44.928,124.845 45.062,124.543C45.196,124.24 45.44,123.726 45.605,123.401C45.77,123.076 46.055,122.553 46.238,122.239C46.421,121.925 46.753,121.398 46.974,121.066C47.195,120.734 47.541,120.245 47.743,119.978C47.945,119.711 48.314,119.248 48.565,118.95C48.815,118.652 49.407,118.021 49.88,117.55C50.353,117.078 51.006,116.472 51.331,116.202C51.656,115.932 52.069,115.602 52.248,115.467C52.428,115.333 52.73,115.113 52.921,114.979C53.111,114.845 53.515,114.578 53.818,114.386C54.121,114.195 54.598,113.909 54.878,113.751C55.158,113.594 55.575,113.371 55.805,113.255C56.035,113.14 56.411,112.962 56.641,112.86C56.871,112.757 57.325,112.567 57.65,112.437C57.975,112.307 58.525,112.107 58.873,111.994C59.22,111.88 59.633,111.75 59.79,111.705C59.947,111.659 60.383,111.548 60.76,111.458C61.137,111.367 61.761,111.239 62.146,111.174C62.532,111.108 63.095,111.025 63.398,110.99C63.701,110.954 64.15,110.908 64.396,110.888C64.643,110.868 65.515,110.858 66.333,110.865L66.333,110.865ZM133.456,110.852C134.107,110.848 134.887,110.864 135.188,110.887C135.49,110.91 135.975,110.957 136.267,110.991C136.558,111.024 137.068,111.097 137.401,111.153C137.733,111.209 138.173,111.291 138.379,111.337C138.585,111.383 138.973,111.475 139.242,111.542C139.512,111.609 140.007,111.749 140.343,111.852C140.679,111.955 141.212,112.135 141.526,112.251C141.84,112.368 142.363,112.579 142.688,112.719C143.012,112.859 143.563,113.118 143.91,113.294C144.258,113.47 144.799,113.763 145.113,113.946C145.427,114.13 145.915,114.432 146.198,114.619C146.481,114.806 146.968,115.15 147.281,115.383C147.593,115.616 148.077,115.996 148.356,116.228C148.635,116.46 149.277,117.063 149.783,117.569C150.289,118.075 150.9,118.727 151.141,119.017C151.382,119.308 151.734,119.752 151.923,120.004C152.112,120.256 152.431,120.706 152.632,121.004C152.833,121.302 153.145,121.794 153.327,122.097C153.508,122.399 153.854,123.041 154.095,123.524C154.337,124.005 154.64,124.657 154.769,124.971C154.898,125.285 155.104,125.823 155.226,126.167C155.349,126.511 155.54,127.111 155.651,127.502C155.762,127.893 155.916,128.511 155.994,128.875C156.072,129.239 156.172,129.757 156.217,130.026C156.261,130.295 156.326,130.753 156.362,131.045C156.397,131.336 156.445,131.822 156.468,132.125C156.492,132.428 156.511,133.18 156.511,133.797C156.511,134.413 156.492,135.165 156.468,135.468C156.445,135.77 156.397,136.257 156.362,136.548C156.326,136.84 156.261,137.298 156.217,137.567C156.172,137.837 156.072,138.355 155.994,138.719C155.916,139.083 155.762,139.7 155.651,140.091C155.54,140.482 155.346,141.092 155.221,141.447C155.095,141.802 154.871,142.377 154.724,142.724C154.577,143.072 154.305,143.661 154.118,144.034C153.932,144.406 153.64,144.957 153.468,145.257C153.296,145.557 152.967,146.086 152.737,146.434C152.506,146.781 152.171,147.262 151.992,147.502C151.813,147.742 151.467,148.182 151.223,148.48C150.979,148.778 150.349,149.456 149.822,149.984C149.295,150.514 148.641,151.132 148.369,151.358C148.098,151.584 147.639,151.948 147.35,152.165C147.061,152.382 146.541,152.748 146.193,152.978C145.846,153.207 145.332,153.528 145.052,153.69C144.772,153.853 144.221,154.146 143.829,154.342C143.436,154.539 142.869,154.804 142.569,154.932C142.269,155.06 141.782,155.254 141.487,155.363C141.192,155.471 140.682,155.643 140.355,155.745C140.027,155.847 139.505,155.993 139.195,156.07C138.885,156.148 138.448,156.249 138.223,156.294C137.999,156.339 137.596,156.414 137.326,156.459C137.057,156.504 136.608,156.569 136.328,156.602C136.048,156.636 135.561,156.683 135.247,156.708C134.934,156.732 134.172,156.753 133.556,156.753C132.939,156.753 132.178,156.732 131.864,156.708C131.55,156.683 131,156.626 130.642,156.581C130.283,156.536 129.742,156.453 129.439,156.397C129.136,156.341 128.686,156.25 128.44,156.195C128.193,156.139 127.789,156.038 127.543,155.971C127.296,155.903 126.911,155.791 126.687,155.722C126.462,155.653 125.967,155.481 125.585,155.34C125.204,155.198 124.655,154.979 124.364,154.852C124.073,154.725 123.532,154.468 123.161,154.28C122.791,154.093 122.176,153.753 121.795,153.525C121.413,153.297 120.817,152.912 120.47,152.668C120.122,152.425 119.643,152.073 119.405,151.888C119.166,151.702 118.717,151.328 118.406,151.055C118.095,150.783 117.537,150.251 117.166,149.873C116.795,149.495 116.283,148.938 116.027,148.636C115.772,148.333 115.385,147.847 115.168,147.555C114.95,147.264 114.608,146.777 114.407,146.475C114.206,146.172 113.917,145.714 113.765,145.457C113.613,145.2 113.345,144.714 113.17,144.377C112.995,144.04 112.756,143.553 112.64,143.295C112.524,143.037 112.323,142.56 112.194,142.235C112.065,141.91 111.848,141.305 111.714,140.89C111.579,140.475 111.395,139.842 111.304,139.484C111.213,139.125 111.084,138.547 111.017,138.199C110.949,137.852 110.857,137.301 110.813,136.976C110.768,136.651 110.707,136.156 110.678,135.876C110.644,135.549 110.625,134.803 110.625,133.797C110.625,132.791 110.644,132.044 110.678,131.718C110.707,131.437 110.768,130.942 110.813,130.617C110.857,130.292 110.949,129.742 111.017,129.394C111.084,129.046 111.213,128.469 111.304,128.11C111.395,127.751 111.57,127.146 111.694,126.765C111.817,126.383 112.033,125.778 112.173,125.419C112.314,125.061 112.559,124.485 112.717,124.141C112.876,123.796 113.147,123.255 113.319,122.938C113.491,122.622 113.743,122.178 113.878,121.954C114.013,121.73 114.306,121.276 114.53,120.945C114.753,120.615 114.95,120.344 114.968,120.344C114.985,120.344 115.346,120.613 115.768,120.941C116.19,121.27 116.774,121.732 117.066,121.968C117.357,122.205 117.972,122.714 118.431,123.098C118.891,123.483 119.588,124.079 119.98,124.423C120.373,124.766 121.051,125.37 121.486,125.763C121.923,126.157 122.702,126.875 123.219,127.359C123.736,127.842 124.711,128.778 125.386,129.438C126.06,130.098 126.964,130.998 127.395,131.439L128.177,132.24L128.087,132.662C128.015,133 127.997,133.219 127.995,133.776C127.994,134.277 128.013,134.568 128.064,134.823C128.104,135.018 128.182,135.32 128.238,135.496C128.295,135.671 128.408,135.957 128.489,136.131C128.57,136.305 128.629,136.453 128.619,136.46C128.61,136.467 128.432,136.579 128.223,136.709C128.014,136.84 127.555,137.16 127.203,137.422C126.852,137.684 126.319,138.103 126.019,138.353C125.72,138.604 125.215,139.045 124.898,139.335C124.581,139.625 123.946,140.244 123.486,140.712C123.027,141.18 122.433,141.81 122.167,142.113C121.901,142.415 121.433,142.976 121.128,143.358C120.822,143.739 120.407,144.285 120.205,144.57C120.003,144.855 119.713,145.285 119.56,145.527C119.408,145.768 119.137,146.259 118.958,146.618C118.731,147.075 118.603,147.391 118.53,147.677C118.454,147.973 118.431,148.15 118.445,148.319C118.455,148.448 118.498,148.611 118.539,148.682C118.581,148.752 118.679,148.844 118.757,148.886C118.858,148.94 118.984,148.962 119.193,148.962C119.397,148.962 119.591,148.929 119.826,148.855C120.012,148.796 120.347,148.66 120.572,148.552C120.796,148.444 121.177,148.236 121.419,148.089C121.661,147.943 122.05,147.689 122.283,147.525C122.516,147.362 122.927,147.057 123.195,146.85C123.464,146.642 123.946,146.247 124.267,145.972C124.589,145.697 125.182,145.159 125.586,144.778C125.989,144.396 126.586,143.801 126.911,143.455C127.237,143.109 127.687,142.615 127.913,142.358C128.139,142.099 128.488,141.687 128.691,141.44C128.893,141.194 129.23,140.762 129.438,140.482C129.647,140.202 129.958,139.762 130.128,139.504C130.299,139.246 130.497,138.94 130.569,138.823L130.699,138.611L131.057,138.794C131.254,138.895 131.614,139.04 131.858,139.117C132.101,139.194 132.505,139.288 132.755,139.325C133.089,139.374 133.36,139.386 133.78,139.369C134.119,139.355 134.499,139.313 134.717,139.264C134.919,139.219 135.222,139.135 135.39,139.077C135.558,139.02 135.867,138.888 136.075,138.785C136.284,138.682 136.604,138.49 136.788,138.359C136.971,138.228 137.273,137.97 137.461,137.784C137.648,137.599 137.898,137.319 138.015,137.161C138.133,137.003 138.295,136.763 138.377,136.627C138.458,136.492 138.578,136.263 138.643,136.118C138.708,135.974 138.809,135.709 138.868,135.529C138.927,135.35 139.005,135.065 139.041,134.897C139.077,134.729 139.117,134.351 139.129,134.056C139.142,133.737 139.131,133.362 139.103,133.128C139.075,132.913 139.008,132.568 138.953,132.361C138.897,132.154 138.779,131.815 138.69,131.607C138.602,131.399 138.529,131.221 138.529,131.211C138.529,131.201 138.69,131.097 138.886,130.979C139.082,130.861 139.399,130.661 139.589,130.534C139.78,130.407 140.156,130.138 140.425,129.937C140.694,129.736 141.143,129.382 141.423,129.15C141.704,128.917 142.198,128.487 142.522,128.194C142.847,127.901 143.406,127.368 143.766,127.009C144.126,126.65 144.648,126.109 144.925,125.806C145.203,125.504 145.668,124.972 145.959,124.624C146.25,124.276 146.695,123.717 146.948,123.381C147.2,123.045 147.586,122.495 147.806,122.16C148.025,121.825 148.338,121.293 148.5,120.978C148.662,120.663 148.851,120.246 148.919,120.051C148.987,119.856 149.058,119.581 149.076,119.439C149.095,119.298 149.098,119.097 149.082,118.993C149.067,118.889 149.023,118.755 148.983,118.696C148.944,118.636 148.855,118.556 148.786,118.518C148.695,118.469 148.567,118.449 148.333,118.451C148.089,118.453 147.925,118.482 147.681,118.566C147.502,118.628 147.208,118.747 147.029,118.831C146.849,118.915 146.464,119.127 146.173,119.303C145.881,119.478 145.459,119.751 145.235,119.91C145.011,120.068 144.59,120.382 144.301,120.607C144.011,120.832 143.553,121.206 143.282,121.438C143.011,121.67 142.454,122.173 142.044,122.557C141.635,122.941 140.971,123.604 140.571,124.031C140.169,124.458 139.653,125.027 139.423,125.295C139.193,125.563 138.814,126.021 138.582,126.314C138.348,126.607 137.998,127.07 137.803,127.345C137.608,127.619 137.302,128.08 137.123,128.369C136.943,128.658 136.765,128.951 136.728,129.021L136.659,129.147L136.381,128.978C136.228,128.885 135.957,128.746 135.777,128.67C135.598,128.594 135.295,128.486 135.105,128.431C134.914,128.375 134.584,128.303 134.371,128.271C134.158,128.239 133.8,128.212 133.576,128.212C133.352,128.212 132.988,128.24 132.767,128.272C132.547,128.306 132.221,128.373 132.045,128.421L131.723,128.509L131.164,127.983C130.856,127.694 130.172,127.026 129.644,126.499C129.115,125.972 128.38,125.22 128.011,124.828C127.641,124.435 127.034,123.775 126.662,123.36C126.29,122.945 125.803,122.395 125.581,122.138C125.358,121.879 124.946,121.394 124.665,121.057C124.384,120.721 123.897,120.125 123.583,119.732C123.269,119.34 122.774,118.707 122.482,118.326C122.191,117.945 121.705,117.293 121.402,116.879C121.099,116.464 120.7,115.909 120.515,115.646C120.33,115.383 120.19,115.15 120.202,115.129C120.215,115.109 120.441,114.946 120.705,114.768C120.968,114.59 121.458,114.279 121.795,114.078C122.131,113.876 122.636,113.591 122.916,113.443C123.196,113.296 123.673,113.062 123.976,112.923C124.278,112.784 124.819,112.555 125.178,112.415C125.537,112.274 126.124,112.063 126.483,111.946C126.841,111.829 127.447,111.654 127.828,111.558C128.209,111.461 128.755,111.335 129.042,111.277C129.329,111.219 129.879,111.127 130.265,111.072C130.651,111.016 131.196,110.952 131.476,110.928C131.757,110.905 132.05,110.879 132.129,110.872C132.207,110.865 132.804,110.856 133.456,110.852L133.456,110.852ZM66.178,132.454C66.316,132.453 66.5,132.485 66.63,132.533C66.75,132.578 66.921,132.677 67.01,132.753C67.098,132.829 67.224,132.988 67.288,133.107C67.377,133.27 67.41,133.394 67.425,133.615C67.438,133.824 67.423,133.968 67.375,134.114C67.337,134.228 67.232,134.405 67.142,134.508C67.051,134.611 66.9,134.739 66.807,134.793C66.714,134.847 66.537,134.909 66.414,134.931C66.279,134.955 66.103,134.957 65.972,134.936C65.853,134.917 65.676,134.855 65.579,134.798C65.482,134.741 65.329,134.611 65.239,134.509C65.149,134.406 65.046,134.238 65.011,134.134C64.975,134.03 64.946,133.823 64.946,133.674C64.946,133.452 64.97,133.356 65.072,133.152C65.141,133.013 65.271,132.838 65.364,132.758C65.456,132.68 65.624,132.579 65.738,132.536C65.852,132.492 66.05,132.455 66.178,132.454L66.178,132.454ZM133.597,132.555C133.698,132.566 133.866,132.603 133.97,132.637C134.075,132.672 134.244,132.774 134.345,132.863C134.449,132.954 134.58,133.128 134.644,133.258C134.741,133.456 134.758,133.54 134.756,133.817C134.754,134.087 134.736,134.179 134.646,134.352C134.587,134.466 134.447,134.642 134.335,134.743C134.203,134.862 134.051,134.951 133.901,134.998C133.738,135.049 133.594,135.065 133.418,135.051C133.263,135.039 133.088,134.991 132.961,134.927C132.848,134.87 132.686,134.745 132.601,134.651C132.515,134.557 132.408,134.395 132.361,134.291C132.298,134.152 132.276,134.023 132.278,133.797C132.279,133.611 132.305,133.435 132.343,133.348C132.379,133.27 132.463,133.129 132.531,133.035C132.6,132.942 132.742,132.814 132.848,132.752C132.954,132.69 133.124,132.615 133.227,132.587C133.329,132.558 133.496,132.543 133.596,132.555L133.597,132.555Z" style="fill:rgb(254,151,58);fill-rule:nonzero;"></path>
            </g>
        </g>
    </g>
</svg><style>@media (prefers-color-scheme: light) { :root { filter: none; } }
</style></svg>