<?xml version="1.0" standalone="no"?>
<!DOCTYPE svg PUBLIC "-//W3C//DTD SVG 20010904//EN"
 "http://www.w3.org/TR/2001/REC-SVG-20010904/DTD/svg10.dtd">
<svg version="1.0" xmlns="http://www.w3.org/2000/svg"
 width="700.000000pt" height="700.000000pt" viewBox="0 0 700.000000 700.000000"
 preserveAspectRatio="xMidYMid meet">
<metadata>
Created by potrace 1.14, written by Peter Selinger 2001-2017
</metadata>
<g transform="translate(0.000000,700.000000) scale(0.100000,-0.100000)"
fill="#000000" stroke="none">
<path d="M1507 6994 c-1 -2 -32 -4 -69 -5 -131 -5 -318 -44 -451 -94 -397
-149 -727 -474 -882 -870 -34 -86 -83 -279 -92 -360 -14 -123 -8 -368 12 -470
109 -559 502 -1002 1040 -1173 162 -52 295 -70 480 -67 88 2 169 5 180 8 11 3
40 8 65 12 181 29 417 124 580 235 l59 40 77 -126 77 -125 -36 -77 c-72 -156
-97 -280 -92 -457 2 -66 6 -131 9 -145 3 -14 9 -38 12 -55 3 -16 18 -68 34
-114 l29 -84 -43 -86 c-24 -47 -59 -112 -78 -143 l-34 -57 -62 39 c-149 94
-352 172 -537 206 -107 19 -345 25 -464 10 -231 -27 -504 -138 -701 -284 -296
-219 -501 -534 -584 -897 -24 -102 -27 -131 -30 -305 -4 -206 17 -344 79 -521
242 -689 938 -1111 1659 -1004 394 59 733 258 986 581 44 56 70 93 70 100 0 4
6 15 14 23 21 25 103 189 130 261 27 74 62 198 70 250 3 19 9 46 12 60 4 14 8
106 10 205 2 143 -2 201 -16 280 -41 219 -104 380 -222 568 -27 43 -48 80 -46
81 28 21 219 135 235 140 14 4 36 0 60 -12 41 -21 144 -54 236 -76 68 -15 266
-19 352 -5 79 13 186 45 258 79 l57 27 77 -43 c102 -58 193 -117 193 -125 0
-4 -16 -31 -36 -60 -120 -178 -216 -448 -240 -669 -7 -74 -7 -281 0 -319 3
-14 8 -48 11 -76 8 -74 53 -238 91 -333 164 -406 500 -727 909 -868 89 -31
205 -60 274 -69 30 -4 63 -9 75 -11 30 -6 251 -5 316 1 161 17 344 71 505 150
468 229 788 683 844 1200 8 74 6 314 -3 360 -2 11 -7 40 -11 65 -10 70 -52
218 -80 290 -142 354 -402 638 -742 810 -55 27 -104 50 -108 50 -4 0 -21 6
-38 13 -50 22 -160 54 -217 63 -14 3 -32 7 -40 9 -93 26 -397 26 -535 1 -191
-35 -385 -109 -544 -209 l-75 -46 -33 49 c-18 27 -33 51 -33 54 0 2 -20 40
-45 83 -25 43 -49 84 -53 92 -5 8 4 48 21 95 54 150 74 339 53 487 -10 70 -43
194 -66 246 -11 25 -20 51 -20 58 0 14 116 208 159 267 l27 37 55 -36 c160
-108 391 -199 592 -232 111 -18 387 -22 462 -7 17 4 53 11 80 16 75 14 83 16
181 48 441 146 811 510 957 942 67 198 86 326 82 552 -2 86 -5 161 -8 165 -3
5 -8 28 -12 51 -41 275 -203 586 -415 799 -135 136 -266 229 -430 307 -357
169 -747 194 -1123 72 -57 -19 -112 -38 -123 -44 -10 -6 -52 -27 -93 -47 -281
-139 -530 -389 -671 -673 -49 -100 -114 -277 -125 -345 -3 -18 -8 -39 -10 -47
-20 -73 -32 -311 -21 -430 10 -110 36 -230 79 -360 23 -70 127 -281 170 -344
15 -21 27 -42 27 -45 0 -7 -138 -90 -244 -147 l-58 -32 -63 29 c-58 26 -172
59 -260 74 -59 10 -231 8 -308 -5 -37 -6 -103 -22 -147 -36 l-80 -25 -70 35
c-86 44 -230 126 -230 132 0 3 20 40 45 83 92 160 146 298 186 481 19 87 24
135 24 275 0 203 -7 268 -40 399 -45 172 -102 303 -193 446 -30 47 -57 87 -61
90 -3 3 -18 21 -33 41 -44 59 -179 194 -248 247 -250 192 -531 299 -845 320
-58 4 -107 7 -108 6z m188 -194 c138 -23 166 -30 275 -67 180 -62 345 -167
495 -318 259 -258 392 -578 393 -940 0 -113 -5 -161 -33 -310 -19 -101 -102
-300 -168 -403 l-33 -53 -115 87 c-109 83 -240 189 -304 246 -16 14 -39 35
-51 45 -44 38 -182 164 -246 225 l-66 63 2 75 c2 51 -2 88 -15 121 l-17 48 35
21 c234 138 583 532 583 658 0 48 -21 57 -82 37 -106 -34 -237 -130 -406 -298
-87 -86 -201 -221 -232 -276 -6 -12 -16 -11 -61 9 -41 17 -73 23 -129 23 -120
1 -212 -51 -275 -153 -54 -89 -64 -192 -26 -284 6 -16 10 -30 9 -31 -2 -1 -31
-21 -65 -43 -282 -190 -607 -590 -542 -668 62 -75 402 172 634 461 31 39 63
82 71 97 l14 27 55 -25 c57 -26 133 -33 209 -19 33 7 38 3 198 -157 164 -163
223 -225 308 -327 87 -104 181 -226 195 -253 15 -26 14 -26 -59 -72 -174 -109
-358 -177 -546 -202 -67 -9 -285 -9 -359 0 -375 46 -748 287 -953 616 -81 129
-157 316 -174 425 -3 22 -8 43 -10 46 -8 14 -18 143 -18 239 0 179 16 275 69
435 106 317 337 586 645 753 78 41 285 116 355 127 22 4 60 10 85 14 63 11
295 11 355 1z m3955 0 c118 -18 138 -23 244 -58 338 -111 614 -346 773 -658
106 -207 146 -371 147 -604 0 -148 -8 -226 -38 -342 -152 -582 -671 -992
-1268 -1003 -219 -3 -408 36 -595 125 -101 48 -213 116 -213 129 0 9 56 78
185 226 102 117 152 170 340 361 l170 173 65 -1 c72 -1 94 3 163 34 l48 22 16
-25 c79 -112 293 -307 455 -413 195 -127 312 -149 294 -55 -22 120 -344 444
-567 570 -97 55 -92 49 -79 98 73 273 -187 497 -451 387 -11 -5 -23 5 -42 33
-15 22 -75 88 -134 148 -231 231 -500 398 -593 368 -20 -6 -22 -12 -17 -47 17
-129 327 -439 600 -600 l46 -27 -20 -47 c-22 -49 -28 -145 -14 -214 7 -35 5
-37 -132 -170 -177 -174 -312 -290 -508 -438 -79 -59 -118 -83 -129 -79 -16 6
-102 147 -136 223 -89 198 -121 360 -115 584 3 155 5 169 29 271 125 541 573
950 1125 1028 75 11 282 11 351 1z m-4072 -1273 c18 -18 22 -69 8 -89 -45 -61
-135 -29 -136 48 0 6 12 23 26 39 21 23 31 26 57 21 17 -4 38 -12 45 -19z
m3958 -5 c19 -25 17 -76 -4 -95 -73 -66 -166 30 -96 100 20 20 32 24 56 19 17
-3 37 -14 44 -24z m-3776 -2676 c110 -20 254 -67 350 -116 84 -42 155 -84 164
-98 4 -7 -32 -64 -81 -127 -5 -5 -33 -41 -62 -80 -122 -158 -303 -366 -436
-502 l-80 -81 -45 7 c-55 8 -141 -4 -183 -26 -23 -11 -32 -12 -35 -4 -9 26
-123 160 -203 238 -244 238 -519 398 -558 324 -29 -53 47 -175 209 -340 147
-148 234 -217 417 -327 l22 -14 -21 -57 c-58 -165 14 -338 172 -410 74 -34
183 -37 252 -6 l47 21 37 -46 c59 -75 263 -272 344 -333 202 -152 348 -208
370 -144 17 48 -71 184 -213 328 -114 117 -200 188 -321 268 l-94 62 15 36
c17 41 24 142 12 184 -7 24 -1 34 44 84 135 146 302 306 448 429 99 84 257
204 267 204 10 0 104 -154 139 -230 40 -83 89 -243 107 -345 19 -108 15 -374
-8 -475 -101 -459 -396 -814 -817 -984 -93 -38 -212 -71 -299 -83 -101 -15
-368 -8 -458 11 -406 86 -741 338 -926 696 -101 197 -147 379 -149 590 -1 161
7 241 40 365 108 413 402 747 797 906 119 47 223 74 331 85 33 3 61 7 63 8 9
9 272 -5 342 -18z m3885 9 c244 -36 488 -144 664 -294 309 -262 481 -622 484
-1011 2 -243 -36 -410 -140 -621 -194 -392 -571 -663 -1013 -728 -64 -10 -334
-7 -398 3 -478 79 -894 432 -1050 891 -45 132 -63 234 -69 380 -8 199 21 374
94 554 36 89 123 251 146 270 10 8 24 3 58 -21 24 -18 46 -35 49 -38 3 -3 30
-25 60 -50 30 -25 60 -49 66 -55 6 -5 40 -35 75 -65 86 -74 155 -139 325 -304
l144 -139 -4 -71 c-2 -47 2 -90 13 -126 l17 -55 -81 -60 c-231 -172 -507 -510
-507 -621 0 -120 213 -7 462 245 58 58 119 124 135 146 17 22 35 45 41 52 6 6
26 34 44 62 22 35 36 49 44 42 6 -5 34 -16 61 -24 151 -44 317 29 384 170 39
81 43 174 12 256 -6 16 -9 32 -7 36 3 3 31 24 63 46 193 132 425 384 510 552
68 137 34 180 -93 118 -165 -81 -454 -362 -573 -557 l-22 -38 -39 20 c-60 31
-135 39 -220 25 -35 -6 -37 -4 -175 137 -157 161 -180 187 -281 308 -76 90
-244 314 -244 324 0 13 229 146 250 146 4 0 25 8 46 17 22 9 44 18 49 19 6 2
42 12 80 24 39 11 88 23 110 26 22 2 63 8 90 12 60 10 270 8 340 -3z m-4062
-1276 c24 -30 21 -66 -8 -94 -31 -32 -65 -32 -95 -1 -31 34 -29 74 4 103 32
28 72 24 99 -8z m3922 -4 c31 -30 32 -56 2 -91 -31 -36 -73 -36 -105 1 -59 69
39 155 103 90z"/>
</g>
</svg>
